<svg id="Logo" xmlns="http://www.w3.org/2000/svg" width="66.106" height="32.691" viewBox="0 0 66.106 32.691">
  <path id="Fill-35" d="M39.448,7.351,43.4,9.769,40.39,15.185H29.273L20.7,30.564l3.58,2.128,7.443-13.251H42.839L47.079,11.9l3.863,2.321L51.506,0Z" transform="translate(-3.286)" fill="#95c13d" fill-rule="evenodd"/>
  <path id="path-1_00000145046301420574922560000013221811800469212591_" d="M10.248,1.8a5.433,5.433,0,0,0-1.8.289,2.908,2.908,0,0,0-1.421.963A5.272,5.272,0,0,0,6.079,4.69,7.637,7.637,0,0,0,5.795,7v6.166a2.11,2.11,0,0,1-.474,1.349,4.21,4.21,0,0,1-1.042.771,2.877,2.877,0,0,1-1.232.289c-.379,0-.758.1-.947.1v4.046a4.281,4.281,0,0,1,.947.1c.379.1.853.193,1.232.289a2.689,2.689,0,0,1,1.042.771,1.925,1.925,0,0,1,.474,1.349v6.166A6.112,6.112,0,0,0,6.174,30.8a4.626,4.626,0,0,0,.947,1.638,3.745,3.745,0,0,0,1.421.963,5.284,5.284,0,0,0,1.705.289h3.6V29.642H12.143a3.656,3.656,0,0,1-1.232-.193,1.007,1.007,0,0,1-.663-.578,1.1,1.1,0,0,1-.284-.771c0-.289-.095-.482-.095-.771v-5.78a3.651,3.651,0,0,0-.379-1.927,1.931,1.931,0,0,0-.853-1.06A2.411,2.411,0,0,0,7.5,18.081a4.539,4.539,0,0,0-1.137-.1v-.1A4.684,4.684,0,0,0,7.5,17.7a5.743,5.743,0,0,0,1.137-.482,5.094,5.094,0,0,0,.853-1.06,5.317,5.317,0,0,0,.379-1.927V8.447a2.432,2.432,0,0,1,.095-.771,1.294,1.294,0,0,1,.284-.771,4.141,4.141,0,0,1,.663-.578,3.656,3.656,0,0,1,1.232-.193h1.705V1.8Z" transform="translate(-2.1 -1.404)" fill="#028d9a" fill-rule="evenodd"/>
  <path id="Clip-33" d="M62.2,1.8V5.868h1.678a3.527,3.527,0,0,1,1.212.194,1,1,0,0,1,.653.582,1.126,1.126,0,0,1,.28.775c0,.291.093.485.093.775v5.815a3.743,3.743,0,0,0,.373,1.938,1.934,1.934,0,0,0,.839,1.066,2.008,2.008,0,0,0,1.119.485,4.372,4.372,0,0,0,1.119.1v.1c-.373.1-.746.1-1.119.194a2.813,2.813,0,0,0-1.119.485,3.2,3.2,0,0,0-.839,1.066,5.452,5.452,0,0,0-.373,1.938v5.815a2.5,2.5,0,0,1-.093.775,2.6,2.6,0,0,1-.28.775,4.1,4.1,0,0,1-.653.582,3.527,3.527,0,0,1-1.212.194H62.2v4.071h3.543a5.241,5.241,0,0,0,1.772-.291,3.489,3.489,0,0,0,1.4-.872,5.332,5.332,0,0,0,.932-1.648,8.754,8.754,0,0,0,.373-2.423V22.345a2.152,2.152,0,0,1,.466-1.357,4.151,4.151,0,0,1,1.026-.775,2.5,2.5,0,0,1,1.212-.291c.373,0,.746-.1,1.026-.1V15.754a4.406,4.406,0,0,1-1.026-.1c-.373-.1-.839-.194-1.212-.291a2.651,2.651,0,0,1-1.026-.775,1.962,1.962,0,0,1-.466-1.357v-6.2a6.273,6.273,0,0,0-.373-2.423,4.679,4.679,0,0,0-.932-1.648,3.683,3.683,0,0,0-1.4-.969A4.575,4.575,0,0,0,65.93,1.7H62.2Z" transform="translate(-7.841 -1.29)" fill="#028d9a" fill-rule="evenodd"/>
</svg>
