<svg xmlns="http://www.w3.org/2000/svg" width="11.503" height="15.611" viewBox="0 0 11.503 15.611">
  <path id="Icon_material-keyboard-voice" data-name="Icon material-keyboard-voice" d="M13.251,14.36a2.455,2.455,0,0,0,2.457-2.465l.008-4.93a2.465,2.465,0,1,0-4.93,0v4.93A2.462,2.462,0,0,0,13.251,14.36Zm4.355-2.465a4.263,4.263,0,0,1-4.355,4.19A4.263,4.263,0,0,1,8.9,11.895H7.5a5.731,5.731,0,0,0,4.93,5.521v2.695h1.643V17.416A5.725,5.725,0,0,0,19,11.895Z" transform="translate(-7.5 -4.5)" fill="#fff"/>
</svg>
