<svg xmlns="http://www.w3.org/2000/svg" width="35.14" height="17.277" viewBox="0 0 35.14 17.277">
  <g id="Logo" transform="translate(-1 -11)">
    <path id="Path_3514" data-name="Path 3514" d="M28.94,11l-.3,7.513-2.108-1.227L24.21,21.273H18.147l-4.063,7-1.95-1.125,4.678-8.129h6.064L24.52,16.16l-2.159-1.278Z" transform="translate(-2.087 0)" fill="#95c13d" fill-rule="evenodd"/>
    <path id="Path_3515" data-name="Path 3515" d="M7.412,11.266v2.29H6.484a2.054,2.054,0,0,0-.674.1,2.237,2.237,0,0,0-.362.306.67.67,0,0,0-.155.406,1.245,1.245,0,0,0-.051.406v3.051a2.729,2.729,0,0,1-.207,1.017,2.711,2.711,0,0,1-.466.56,3.193,3.193,0,0,1-.62.254,2.635,2.635,0,0,1-.62.1v.05a2.553,2.553,0,0,1,.62.05,1.338,1.338,0,0,1,.622.255,1.027,1.027,0,0,1,.466.56A1.876,1.876,0,0,1,5.244,21.7v3.053c0,.153.051.254.051.406a.569.569,0,0,0,.155.406.533.533,0,0,0,.145.193.555.555,0,0,0,.217.113,2.055,2.055,0,0,0,.672.1h.929v2.138H5.45a2.971,2.971,0,0,1-.93-.153,2.05,2.05,0,0,1-.775-.509,2.425,2.425,0,0,1-.517-.865,3.134,3.134,0,0,1-.207-1.272V22.052a1,1,0,0,0-.258-.713,1.462,1.462,0,0,0-.569-.406c-.207-.05-.466-.1-.672-.153A2.409,2.409,0,0,0,1,20.729V18.592c.1,0,.31-.05.517-.05a1.612,1.612,0,0,0,.672-.153,2.3,2.3,0,0,0,.569-.406,1.092,1.092,0,0,0,.258-.713V14.013a3.911,3.911,0,0,1,.155-1.219,2.762,2.762,0,0,1,.522-.866,1.589,1.589,0,0,1,.775-.509,3.053,3.053,0,0,1,.982-.153Z" transform="translate(0 -0.05)" fill="#028d9a" fill-rule="evenodd"/>
    <path id="Path_3516" data-name="Path 3516" d="M36.361,11.275h2.031a2.57,2.57,0,0,1,.868.153,2.013,2.013,0,0,1,.763.512,2.451,2.451,0,0,1,.509.871,3.217,3.217,0,0,1,.2,1.279v3.279a1.015,1.015,0,0,0,.254.717,1.442,1.442,0,0,0,.559.406c.2.051.458.1.661.154a2.479,2.479,0,0,0,.559.051v2.149c-.15,0-.356.051-.559.051a1.4,1.4,0,0,0-.661.154,2.257,2.257,0,0,0-.559.406,1.113,1.113,0,0,0-.254.717v3.169a4.488,4.488,0,0,1-.2,1.289,2.793,2.793,0,0,1-.509.871,1.914,1.914,0,0,1-.763.461,2.949,2.949,0,0,1-.967.154H36.361V25.96h.915a1.984,1.984,0,0,0,.661-.1,2.218,2.218,0,0,0,.356-.307,1.345,1.345,0,0,0,.153-.406,1.281,1.281,0,0,0,.05-.406V21.665a2.8,2.8,0,0,1,.2-1.024,1.7,1.7,0,0,1,.458-.563,1.561,1.561,0,0,1,.61-.256c.2-.05.406-.05.61-.1v-.051a2.462,2.462,0,0,1-.61-.051,1.113,1.113,0,0,1-.61-.256A1.027,1.027,0,0,1,38.7,18.8a1.924,1.924,0,0,1-.2-1.024V14.706c0-.154-.05-.256-.05-.406a.584.584,0,0,0-.153-.406.528.528,0,0,0-.141-.194.55.55,0,0,0-.215-.115,1.984,1.984,0,0,0-.661-.1h-.917V11.275Z" transform="translate(-6.63 -0.052)" fill="#028d9a" fill-rule="evenodd"/>
  </g>
</svg>
